<svg width="16" height="16" viewBox="0 0 16 16" fill="none" xmlns="http://www.w3.org/2000/svg">
<path d="M10.88 1.95217C11.9468 2.5066 12.68 3.65787 12.68 4.98821C12.68 6.31855 11.9468 7.46982 10.88 8.02425M12.32 11.9653C13.4083 12.4802 14.3882 13.3195 15.2 14.4M0.800003 14.4C2.20148 12.5346 4.10421 11.3882 6.2 11.3882C8.29579 11.3882 10.1985 12.5346 11.6 14.4M9.44 4.98821C9.44 6.85948 7.98941 8.37645 6.2 8.37645C4.4106 8.37645 2.96 6.85948 2.96 4.98821C2.96 3.11694 4.4106 1.59998 6.2 1.59998C7.98941 1.59998 9.44 3.11694 9.44 4.98821Z" stroke="#3B3B3B" stroke-width="1.5" stroke-linecap="round" stroke-linejoin="round"/>
</svg>
