<svg width="16" height="16" viewBox="0 0 16 16" fill="none" xmlns="http://www.w3.org/2000/svg">
<path d="M9.33324 3.70667C10.5838 4.00727 11.697 4.71965 12.4938 5.72928C13.2906 6.73891 13.7248 7.98715 13.7266 9.27333V10.5467M2.27324 10.5467V9.27333C2.27146 7.98623 2.70434 6.73623 3.50173 5.72589C4.29911 4.71554 5.4143 4.00403 6.66658 3.70667" stroke="#3B3B3B" stroke-width="1.5" stroke-miterlimit="10"/>
<path d="M13.7267 10.5466H2.27333C1.57009 10.5466 1 11.1167 1 11.82C1 12.5232 1.57009 13.0933 2.27333 13.0933H13.7267C14.4299 13.0933 15 12.5232 15 11.82C15 11.1167 14.4299 10.5466 13.7267 10.5466Z" stroke="#3B3B3B" stroke-width="1.5" stroke-miterlimit="10"/>
<path d="M9.90669 10.5466H6.09335L6.66585 3.64052C6.70023 3.22574 7.04691 2.90662 7.46311 2.90662H8.53693C8.95313 2.90662 9.29981 3.22574 9.33419 3.64053L9.90669 10.5466Z" stroke="#3B3B3B" stroke-width="1.5" stroke-miterlimit="10"/>
</svg>
